<svg width="64" height="64" viewBox="0 0 64 64" fill="none" xmlns="http://www.w3.org/2000/svg">
<path d="M10 53.623V22V9.43151C10 8.41431 11.1502 7.82302 11.9774 8.41495L31.5453 22.417C31.9803 22.7283 32.5651 22.7283 33.0001 22.417L52.5681 8.41495C53.3953 7.82302 54.5455 8.41431 54.5455 9.43151V53.5671C54.5455 54.734 53.0884 55.2645 52.3381 54.3709L40.9727 40.8338C40.5084 40.2808 39.6734 40.2351 39.1515 40.7342L33.1545 46.4693C32.6641 46.9382 31.8891 46.9303 31.4084 46.4514L25.698 40.7629C25.183 40.2499 24.3404 40.2829 23.8671 40.8347L12.1987 54.4368C11.4433 55.3175 10 54.7832 10 53.623Z" fill="url(#paint0_linear_153_13)"/>
<defs>
<linearGradient id="paint0_linear_153_13" x1="31.902" y1="11.5455" x2="31.902" y2="57" gradientUnits="userSpaceOnUse">
<stop stop-color="#2DD4BF"/>
<stop offset="1" stop-color="#22D3EE"/>
</linearGradient>
</defs>
</svg>
